<?xml version="1.0" standalone="no"?><!DOCTYPE svg PUBLIC "-//W3C//DTD SVG 1.1//EN" "http://www.w3.org/Graphics/SVG/1.1/DTD/svg11.dtd"><svg t="1700661854833" class="icon" viewBox="0 0 1024 1024" version="1.1" xmlns="http://www.w3.org/2000/svg" p-id="6332" xmlns:xlink="http://www.w3.org/1999/xlink" width="200" height="200"><path d="M512 576c-25.6 0-42.666667-17.066667-42.666667-42.666667V85.333333c0-25.6 17.066667-42.666667 42.666667-42.666666s42.666667 17.066667 42.666667 42.666666v448c0 25.6-17.066667 42.666667-42.666667 42.666667z" p-id="6333"></path><path d="M512 981.333333C264.533333 981.333333 64 780.8 64 533.333333c0-140.8 64-268.8 174.933333-354.133333 17.066667-12.8 42.666667-8.533333 59.733334 8.533333 12.8 17.066667 12.8 46.933333-8.533334 59.733334a359.68 359.68 0 0 0-140.8 285.866666c0 200.533333 162.133333 362.666667 362.666667 362.666667s362.666667-162.133333 362.666667-362.666667c0-110.933333-51.2-217.6-140.8-285.866666-17.066667-12.8-21.333333-42.666667-8.533334-59.733334 12.8-17.066667 42.666667-21.333333 59.733334-8.533333 110.933333 85.333333 174.933333 213.333333 174.933333 354.133333C960 780.8 759.466667 981.333333 512 981.333333z" p-id="6334"></path></svg>