<?xml version="1.0" standalone="no"?><!DOCTYPE svg PUBLIC "-//W3C//DTD SVG 1.1//EN" "http://www.w3.org/Graphics/SVG/1.1/DTD/svg11.dtd"><svg t="1700660988381" class="icon" viewBox="0 0 1024 1024" version="1.1" xmlns="http://www.w3.org/2000/svg" p-id="1544" xmlns:xlink="http://www.w3.org/1999/xlink" width="200" height="200"><path d="M429.31677 601.043478c-3.180124-3.180124-6.360248-3.180124-9.540372-3.180124-9.540373 0-19.080745 3.180124-22.26087 9.540373-6.360248 9.540373-3.180124 31.801242 3.180124 38.16149 31.801242 34.981366 31.801242 41.341615 12.720497 89.043479-9.540373 28.621118-12.720497 63.602484-15.900621 95.403726-3.180124 31.801242 12.720497 60.42236 41.341615 76.322982 3.180124 3.180124 3.180124 3.180124 9.540373 3.180124 9.540373 0 15.900621-3.180124 22.260869-6.360248 3.180124-3.180124 3.180124-6.360248 3.180124-15.900622 0-3.180124 0-15.900621-6.360248-22.260869-31.801242-28.621118-25.440994-60.42236-9.540373-101.763975 9.540373-15.900621 12.720497-34.981366 15.900621-47.701864 3.180124-6.360248 3.180124-12.720497 3.180125-12.720497V699.627329c0-44.521739-19.080745-85.863354-47.701864-98.583851z m-127.204969 25.440994c-3.180124-3.180124-6.360248-3.180124-9.540372-3.180124-9.540373 0-19.080745 6.360248-22.26087 12.720497-3.180124 9.540373 0 31.801242 6.360248 38.16149 31.801242 34.981366 34.981366 44.521739 12.720497 95.403727-9.540373 15.900621-12.720497 34.981366-19.080745 57.242236-3.180124 9.540373-6.360248 19.080745-9.540373 25.440994v6.360248c3.180124 34.981366 19.080745 79.503106 47.701864 98.583851 3.180124 3.180124 9.540373 3.180124 12.720497 3.180125 3.180124 0 9.540373 0 9.540372-3.180125h12.720497v-15.900621c0-9.540373 0-19.080745-3.180124-25.440994-28.621118-34.981366-31.801242-57.242236-12.720497-101.763975l3.180124-9.540372 19.080746-57.242236c12.720497-50.881988-9.540373-108.124224-47.701864-120.844721z m-120.84472-31.801242c-3.180124-3.180124-3.180124-3.180124-6.360249-3.180124-6.360248 0-12.720497 3.180124-15.900621 6.360248-3.180124 0-6.360248 3.180124-9.540372 3.180124l-3.180125 3.180124 3.180125 6.360249c3.180124 3.180124 3.180124 6.360248 3.180124 9.540373 0 9.540373 0 19.080745 6.360248 25.440993 31.801242 31.801242 31.801242 41.341615 12.720497 85.863354-9.540373 19.080745-12.720497 38.161491-19.080745 57.242236-3.180124 6.360248-6.360248 15.900621-9.540373 25.440994v6.360249c3.180124 34.981366 19.080745 76.322981 44.521739 95.403726 3.180124 3.180124 6.360248 3.180124 9.540373 3.180125 3.180124 0 9.540373 0 12.720497-3.180125 3.180124-3.180124 6.360248-3.180124 9.540372-3.180124H225.78882l-3.180124-6.360248V890.434783c0-6.360248-3.180124-15.900621-6.360249-25.440994-22.26087-31.801242-25.440994-50.881988-12.720497-85.863354 3.180124-6.360248 3.180124-9.540373 6.360249-19.080746 3.180124-15.900621 9.540373-28.621118 12.720497-44.521739 12.720497-54.062112-3.180124-101.763975-41.341615-120.84472z m-117.664597-171.726708V143.10559c0-47.701863 15.900621-66.782609 57.242236-66.782609h664.645963c41.341615 0 57.242236 19.080745 57.242236 66.782609v149.465839h15.900621c12.720497 0 28.621118 0 41.341615 3.180124V149.465839c0-95.403727-41.341615-146.285714-120.84472-146.285715H124.024845C47.701863 6.360248 6.360248 57.242236 6.360248 152.645963v254.409938c0 98.583851 41.341615 149.465839 124.024845 149.465838l426.136646-3.180124v-25.440994c0-12.720497 0-25.440994 3.180124-38.161491H117.664596c-38.161491 3.180124-54.062112-15.900621-54.062112-66.782608zM130.385093 362.534161c-3.180124 0-9.540373 0-12.720497 3.180125-9.540373 6.360248-15.900621 15.900621-19.080745 28.621118-3.180124 12.720497 19.080745 25.440994 19.080745 25.440994 3.180124 3.180124 6.360248 3.180124 9.540373 3.180124 3.180124 0 3.180124 0 3.180124-3.180124h451.57764c12.720497-22.26087 28.621118-41.341615 47.701863-57.242237H130.385093z m705.987578 391.15528v-228.968944c0-15.900621-15.900621-28.621118-38.161491-28.621118s-38.161491 12.720497-38.161491 28.621118v228.968944c-34.981366 15.900621-57.242236 47.701863-57.242236 85.863354 0 50.881988 41.341615 95.403727 95.403727 95.403727s95.403727-41.341615 95.403727-95.403727c-3.180124-38.161491-25.440994-73.142857-57.242236-85.863354zM753.689441 273.490683H133.565217c-6.360248 0-12.720497 0-15.900621 6.360249-6.360248 3.180124-15.900621 15.900621-15.900621 25.440993 0 9.540373 9.540373 22.26087 15.900621 25.440994 3.180124 3.180124 9.540373 3.180124 12.720497 3.180124l9.540373-3.180124h537.440994c31.801242-19.080745 66.782609-28.621118 104.944099-34.981366 0-3.180124-3.180124-9.540373-6.360248-9.540373-3.180124-9.540373-12.720497-12.720497-22.26087-12.720497zM925.416149 705.987578v-248.04969c0-28.621118-15.900621-54.062112-41.341615-73.142857-22.26087-19.080745-54.062112-28.621118-89.043478-28.621118-31.801242 0-63.602484 9.540373-89.043478 28.621118-25.440994 19.080745-41.341615 44.521739-41.341615 73.142857v248.04969c-38.161491 34.981366-57.242236 82.68323-57.242236 133.565217 0 47.701863 19.080745 95.403727 54.062112 130.385093 34.981366 34.981366 82.68323 54.062112 130.385093 54.062112 50.881988 0 95.403727-19.080745 130.385093-54.062112 34.981366-34.981366 54.062112-79.503106 54.062112-130.385093 6.360248-50.881988-15.900621-98.583851-50.881988-133.565217z m-130.385093 267.130434c-76.322981 0-136.745342-60.42236-136.745342-133.565217 0-41.341615 19.080745-79.503106 50.881988-104.944099l9.540373-6.360249v-270.310559c0-28.621118 34.981366-50.881988 76.322981-50.881987s76.322981 25.440994 76.322981 50.881987v270.310559l9.540373 6.360249c31.801242 25.440994 50.881988 63.602484 50.881988 104.944099 0 73.142857-60.42236 133.565217-136.745342 133.565217z" p-id="1545"></path></svg>