<?xml version="1.0" standalone="no"?><!DOCTYPE svg PUBLIC "-//W3C//DTD SVG 1.1//EN" "http://www.w3.org/Graphics/SVG/1.1/DTD/svg11.dtd"><svg t="1700661922857" class="icon" viewBox="0 0 1024 1024" version="1.1" xmlns="http://www.w3.org/2000/svg" p-id="7380" xmlns:xlink="http://www.w3.org/1999/xlink" width="200" height="200"><path d="M397 375.5H76v-50h315v-0.2c2 0.1 4 0.2 6 0.2 55.1 0 100-44.9 100-100s-44.9-100-100-100c-49.3 0-90.5 35.9-98.5 83H248c8.4-74.8 71.9-133 149-133 82.8 0 150 67.2 150 150s-67.1 150-150 150zM778 197c-91.7 0-166.5 72.7-169.9 163.6h50c1.5-29.7 13.8-57.3 35-78.5 22.7-22.7 52.8-35.1 84.9-35.1s62.2 12.5 84.9 35.1c22.7 22.7 35.1 52.8 35.1 84.9s-12.5 62.2-35.1 84.9C840.2 474.5 810.1 487 778 487H76v50h702c93.9 0 170-76.1 170-170s-76.1-170-170-170zM586 648.5l-510-0.1v50h507v0.1h3c55.1 0 100 44.9 100 100s-44.9 100-100 100c-46.1 0-85.1-31.4-96.6-74h-51.2c12.3 70.4 73.8 124 147.7 124 82.8 0 150-67.2 150-150s-67.1-150-149.9-150z" fill="" p-id="7381"></path></svg>